<svg height="512" viewBox="0 0 64 64" width="512" xmlns="http://www.w3.org/2000/svg"><g id="box-online-package-order-success"><path d="m45 2h-26a4 4 0 0 0 -4 4v52a4 4 0 0 0 4 4h26a4 4 0 0 0 4-4v-52a4 4 0 0 0 -4-4zm2 56a2.006 2.006 0 0 1 -2 2h-26a2.006 2.006 0 0 1 -2-2v-52a2.006 2.006 0 0 1 2-2h26a2.006 2.006 0 0 1 2 2z"/><circle cx="23" cy="8" r="2"/><path d="m27 7h16v2h-16z"/><path d="m42 16h-16a1.033 1.033 0 0 0 -.71.29l-4 4a1 1 0 0 0 -.29.71v12a1 1 0 0 0 1 1h16a1 1 0 0 0 .71-.29l4-4a1.033 1.033 0 0 0 .29-.71v-12a1 1 0 0 0 -1-1zm-10.59 2h3.18l-2 2h-3.18zm.59 4v4h-4v-4zm-5.59-4h2.18l-2 2h-2.18zm10.59 14h-14v-10h3v5a1 1 0 0 0 1 1h6a1 1 0 0 0 1-1v-5h3zm.59-12h-2.18l2-2h2.18zm3.41 8.59-2 2v-9.18l2-2z"/><circle cx="32" cy="56" r="2"/><path d="m32 38a7 7 0 1 0 7 7 7.008 7.008 0 0 0 -7-7zm0 12a5 5 0 1 1 5-5 5.006 5.006 0 0 1 -5 5z"/><path d="m31 45.586-1.293-1.293-1.414 1.414 2 2a1 1 0 0 0 1.414 0l4-4-1.414-1.414z"/></g></svg>