<svg height="512" viewBox="0 0 64 64" width="512" xmlns="http://www.w3.org/2000/svg"><g id="hamberger-bag-food-delivery-eating"><path d="m50.99 16.87a1 1 0 0 0 -.99-.87h-6v-2a12 12 0 0 0 -24 0v2h-6a1 1 0 0 0 -.99.87l-6 44a1 1 0 0 0 .24.79.981.981 0 0 0 .75.34h48a.981.981 0 0 0 .75-.34 1 1 0 0 0 .24-.79zm-28.99-2.87a10 10 0 0 1 20 0v2h-20zm-12.85 46 5.72-42h5.13v4h-1v2h4v-2h-1v-4h20v4h-1v2h4v-2h-1v-4h5.13l5.72 42z"/><path d="m43 39h-.06a9.016 9.016 0 0 0 -8.94-8h-4a9.016 9.016 0 0 0 -8.94 8h-.06a1 1 0 0 0 -1 1v4a1 1 0 0 0 1 1h.06a9.016 9.016 0 0 0 8.94 8h4a9.016 9.016 0 0 0 8.94-8h.06a1 1 0 0 0 1-1v-4a1 1 0 0 0 -1-1zm-13-6h4a7.013 7.013 0 0 1 6.93 6h-17.86a7.013 7.013 0 0 1 6.93-6zm4 18h-4a7.013 7.013 0 0 1 -6.93-6h17.86a7.013 7.013 0 0 1 -6.93 6zm8-8h-20v-2h20z"/></g></svg>