<svg height="512" viewBox="0 0 64 64" width="512" xmlns="http://www.w3.org/2000/svg"><g id="laptop-box-order-food"><path d="m61 50h-1v-33a5 5 0 0 0 -5-5h-46a5 5 0 0 0 -5 5v33h-1a1 1 0 0 0 -1 1v4a7.008 7.008 0 0 0 7 7h46a7.008 7.008 0 0 0 7-7v-4a1 1 0 0 0 -1-1zm-55-33a3.009 3.009 0 0 1 3-3h46a3.009 3.009 0 0 1 3 3v33h-52zm35 35v1a1 1 0 0 1 -1 1h-16a1 1 0 0 1 -1-1v-1zm19 3a5 5 0 0 1 -5 5h-46a5 5 0 0 1 -5-5v-3h17v1a3.009 3.009 0 0 0 3 3h16a3.009 3.009 0 0 0 3-3v-1h17z"/><path d="m46 28h-1.22l-1.81-7.24a1 1 0 0 0 -.97-.76h-20a1 1 0 0 0 -.97.76l-1.81 7.24h-1.22a1 1 0 0 0 -1 1v4a1 1 0 0 0 1 1h1.22l1.81 7.24a1 1 0 0 0 .97.76h20a1 1 0 0 0 .97-.76l1.81-7.24h1.22a1 1 0 0 0 1-1v-4a1 1 0 0 0 -1-1zm-23.22-6h18.44l1.5 6h-21.44zm18.44 18h-18.44l-1.5-6h6.72v3a1 1 0 0 0 1 1h6a1 1 0 0 0 1-1v-3h6.72zm-11.22-4v-2h4v2zm15-4h-26v-2h26z"/></g></svg>