<svg height="512" viewBox="0 0 64 64" width="512" xmlns="http://www.w3.org/2000/svg"><g id="laptop-truck-food_delivery-order-shop" data-name="laptop-truck-food delivery-order-shop"><path d="m61 50h-1v-33a5 5 0 0 0 -5-5h-46a5 5 0 0 0 -5 5v33h-1a1 1 0 0 0 -1 1v4a7.008 7.008 0 0 0 7 7h46a7.008 7.008 0 0 0 7-7v-4a1 1 0 0 0 -1-1zm-55-33a3.009 3.009 0 0 1 3-3h46a3.009 3.009 0 0 1 3 3v33h-52zm35 35v1a1 1 0 0 1 -1 1h-16a1 1 0 0 1 -1-1v-1zm19 3a5 5 0 0 1 -5 5h-46a5 5 0 0 1 -5-5v-3h17v1a3.009 3.009 0 0 0 3 3h16a3.009 3.009 0 0 0 3-3v-1h17z"/><path d="m23 34h4v2h-4z"/><path d="m34 32h12a1 1 0 0 0 1-1v-4a1 1 0 0 0 -1-1h-12a1 1 0 0 0 -1 1v4a1 1 0 0 0 1 1zm1-4h10v2h-10z"/><path d="m50 18h-20a1 1 0 0 0 -1 1v2h-10a1 1 0 0 0 -.87.51l-5 9a.947.947 0 0 0 -.13.49v12a1 1 0 0 0 1 1h3.1a5 5 0 0 0 9.8 0h10.2a5 5 0 0 0 9.8 0h3.1a1 1 0 0 0 1-1v-24a1 1 0 0 0 -1-1zm-28 28a3 3 0 1 1 3-3 3.009 3.009 0 0 1 -3 3zm7-4h-2.1a5 5 0 0 0 -9.8 0h-2.1v-10h14zm0-12h-13.3l3.89-7h9.41zm14-10h2v1a1 1 0 0 1 -2 0zm-4 0h2v1a1 1 0 0 1 -2 0zm-4 0h2v1a1 1 0 0 1 -2 0zm-4 0h2v1a1 1 0 0 1 -2 0zm11 26a3 3 0 1 1 3-3 3.009 3.009 0 0 1 -3 3zm7-4h-2.1a5 5 0 0 0 -9.8 0h-6.1v-6h18zm0-8h-18v-10.18a3 3 0 0 0 1 .18 2.974 2.974 0 0 0 2-.78 2.954 2.954 0 0 0 4 0 2.954 2.954 0 0 0 4 0 2.954 2.954 0 0 0 4 0 2.974 2.974 0 0 0 2 .78 3 3 0 0 0 1-.18zm0-13a1 1 0 0 1 -2 0v-1h2z"/></g></svg>