<?xml version="1.0" encoding="UTF-8"?>
<svg xmlns="http://www.w3.org/2000/svg" viewBox="0 0 64 64" width="512" height="512"><g id="likeness-recommend-thumb-popular-up"><path d="M56,56.18V56A24.03,24.03,0,0,0,36,32.34V32a4,4,0,0,0-8,0v.34A24.03,24.03,0,0,0,8,56v.18A3,3,0,0,0,9,62H55a3,3,0,0,0,1-5.82ZM30,32a2.006,2.006,0,0,1,2-2,2.015,2.015,0,0,1,2,2v.09c-.66-.05-1.33-.09-2-.09s-1.34.04-2,.09Zm2,2A22.026,22.026,0,0,1,54,56H10A22.026,22.026,0,0,1,32,34ZM55,60H9a1,1,0,0,1,0-2H55a1,1,0,0,1,0,2Z"/><path d="M26.22,15A2.974,2.974,0,0,0,27,13a3.009,3.009,0,0,0-3-3H20V6a4,4,0,0,0-1.17-2.83,4.046,4.046,0,0,0-3.12-1.16A4.111,4.111,0,0,0,12,6.17V9a1,1,0,0,1-1,1H7.82A3,3,0,0,0,2,11V27a3,3,0,0,0,5.82,1H24a3.009,3.009,0,0,0,3-3,2.974,2.974,0,0,0-.78-2,2.954,2.954,0,0,0,0-4,2.954,2.954,0,0,0,0-4ZM6,27a1,1,0,0,1-2,0V11a1,1,0,0,1,2,0ZM24,16a1,1,0,0,1,0,2H19v2h5a1,1,0,0,1,0,2H19v2h5a1,1,0,0,1,0,2H8V12h3a3.009,3.009,0,0,0,3-3V6.17a2.121,2.121,0,0,1,1.85-2.16A2.006,2.006,0,0,1,18,6v5a1,1,0,0,0,1,1h5a1,1,0,0,1,0,2H19v2Z"/><path d="M37.311,8.652l2.53,1.265,1.264,2.53a1,1,0,0,0,1.79,0l1.264-2.53,2.53-1.265a1,1,0,0,0,0-1.789L44.159,5.6,42.9,3.067a1.043,1.043,0,0,0-1.79,0L39.841,5.6l-2.53,1.265a1,1,0,0,0,0,1.789Zm3.722-1.414a1,1,0,0,0,.447-.447L42,5.751l.52,1.04a1,1,0,0,0,.447.447l1.039.519-1.039.52a1,1,0,0,0-.447.447L42,9.764l-.52-1.04a1,1,0,0,0-.447-.447l-1.039-.52Z"/><path d="M59.689,14.863,57.159,13.6,55.9,11.067a1.043,1.043,0,0,0-1.79,0L52.841,13.6l-2.53,1.265a1,1,0,0,0,0,1.789l2.53,1.265,1.264,2.53a1,1,0,0,0,1.79,0l1.264-2.53,2.53-1.265a1,1,0,0,0,0-1.789Zm-3.722,1.414a1,1,0,0,0-.447.447L55,17.764l-.52-1.04a1,1,0,0,0-.447-.447l-1.039-.52,1.039-.519a1,1,0,0,0,.447-.447l.52-1.04.52,1.04a1,1,0,0,0,.447.447l1.039.519Z"/><path d="M45.9,21.067a1.043,1.043,0,0,0-1.79,0L42.841,23.6l-2.53,1.265a1,1,0,0,0,0,1.789l2.53,1.265,1.264,2.53a1,1,0,0,0,1.79,0l1.264-2.53,2.53-1.265a1,1,0,0,0,0-1.789L47.159,23.6Zm.072,5.21a1,1,0,0,0-.447.447L45,27.764l-.52-1.04a1,1,0,0,0-.447-.447l-1.039-.52,1.039-.519a1,1,0,0,0,.447-.447l.52-1.04.52,1.04a1,1,0,0,0,.447.447l1.039.519Z"/></g></svg>
