<?xml version="1.0" encoding="UTF-8"?>
<svg xmlns="http://www.w3.org/2000/svg" viewBox="0 0 64 64" width="512" height="512"><g id="message-calling-food-order-talking"><path d="M47,2H13a1,1,0,0,0-1,1V14.55L2.33,23.26A1,1,0,0,0,3,25h9v4a1,1,0,0,0,1,1H47a1,1,0,0,0,1-1V3A1,1,0,0,0,47,2ZM46,28H14V24a1,1,0,0,0-1-1H5.61l8.06-7.26A1,1,0,0,0,14,15V4H46Z"/><path d="M61.67,55.26,52,46.55V35a1,1,0,0,0-1-1H17a1,1,0,0,0-1,1V61a1,1,0,0,0,1,1H51a1,1,0,0,0,1-1V57h9a1,1,0,0,0,.67-1.74ZM51,55a1,1,0,0,0-1,1v4H18V36H50V47a1,1,0,0,0,.33.74L58.39,55Z"/><path d="M39,20.18V19a8.991,8.991,0,0,0-6-8.47V9a3,3,0,0,0-3-3,3.009,3.009,0,0,0-3,3v1.53A8.991,8.991,0,0,0,21,19v1.18A3,3,0,0,0,22,26H38a3,3,0,0,0,1-5.82ZM29,9a1,1,0,0,1,1-1,.949.949,0,0,1,.71.31A.928.928,0,0,1,31,9v1.06a8.363,8.363,0,0,0-2,0ZM23,19a7,7,0,0,1,14,0v1H23Zm15,5H22a1,1,0,0,1,0-2H38a1,1,0,0,1,0,2Z"/><path d="M43,40H37a1,1,0,0,0-1,1v4a1,1,0,0,0,1,1h3v4H37a1,1,0,0,0-1,1v4a1,1,0,0,0,1,1h6a3.009,3.009,0,0,0,3-3V43A3.009,3.009,0,0,0,43,40ZM40,54H38V52h2Zm0-10H38V42h2Zm4,9a1,1,0,0,1-1,1H42V42h1a1,1,0,0,1,1,1Z"/><path d="M26.637,41.637l-1.414-1.414a10.994,10.994,0,0,0,0,15.554l1.414-1.414a9,9,0,0,1,0-12.726Z"/><path d="M28.056,43.05a6.987,6.987,0,0,0,0,9.9l1.408-1.42a4.988,4.988,0,0,1,0-7.06Z"/><path d="M30.893,45.873a2.98,2.98,0,0,0,0,4.254l1.394-1.434a.98.98,0,0,1,0-1.386Z"/></g></svg>
