<?xml version="1.0" encoding="UTF-8"?>
<svg xmlns="http://www.w3.org/2000/svg" viewBox="0 0 64 64" width="512" height="512"><g id="motorbike-transprot-motorcycle-delivery-umbrella"><path d="M61,31H46V18H59a1,1,0,0,0,1-1,15,15,0,0,0-30,0,1,1,0,0,0,1,1H44V31H29a1,1,0,0,0-1,1V50H20V33h5a1,1,0,0,0,1-1V28a1,1,0,0,0-1-1H20V25a1,1,0,0,0-1-1H11V19h1a3,3,0,0,0,0-6H10a1,1,0,0,0-1,1V24a3.009,3.009,0,0,0-3,3H5a3,3,0,0,0,0,6H6a3.009,3.009,0,0,0,3,3h1v8H5a3.009,3.009,0,0,0-3,3v8a1,1,0,0,0,1,1H4.08a6.991,6.991,0,0,0,13.84,0H39.08a6.991,6.991,0,0,0,13.84,0H57a1,1,0,0,0,1-1V53h3a1,1,0,0,0,1-1V32A1,1,0,0,0,61,31ZM57.96,16H55.51L47.07,4.18A13.013,13.013,0,0,1,57.96,16ZM46,6.12,53.06,16H46ZM11,15h1a1,1,0,0,1,0,2H11ZM6,31H5a1,1,0,0,1,0-2H6ZM32.04,16A13.013,13.013,0,0,1,42.93,4.18L34.49,16Zm4.9,0L44,6.12V16ZM24,29v2H16V29ZM11,60a5,5,0,1,1,5-5A5,5,0,0,1,11,60Zm7-6h-.08A6.991,6.991,0,0,0,4.08,54H4V47a1,1,0,0,1,1-1H18Zm0-10H12V36h6Zm0-10H9a1,1,0,0,1-1-1V27a1,1,0,0,1,1-1h9v1H15a1,1,0,0,0-1,1v4a1,1,0,0,0,1,1h3ZM39.08,54H20V52H39.69A6.739,6.739,0,0,0,39.08,54ZM46,60a5,5,0,1,1,5-5A5,5,0,0,1,46,60Zm4.89-10a6.978,6.978,0,0,0-9.78,0H37V42H55v8ZM36,40V38H54a1,1,0,0,1,1,1v1ZM56,54H52.92a6.739,6.739,0,0,0-.61-2H56Zm4-3H58a1,1,0,0,0-1-1V39a3.009,3.009,0,0,0-3-3H35a1,1,0,0,0-1,1v4a1,1,0,0,0,1,1v8H30V33H60Z"/></g></svg>
