<?xml version="1.0" encoding="UTF-8"?>
<svg xmlns="http://www.w3.org/2000/svg" viewBox="0 0 64 64" width="512" height="512"><g id="pin-box-food-location-place"><path d="M55,44H53.85L51.99,32.84A1,1,0,0,0,51,32H13a1,1,0,0,0-.99.84L10.15,44H9a1,1,0,0,0-1,1v4a1,1,0,0,0,1,1h1.15l1.86,11.16A1,1,0,0,0,13,62H51a1,1,0,0,0,.99-.84L53.85,50H55a1,1,0,0,0,1-1V45A1,1,0,0,0,55,44ZM13.85,34h36.3l1.67,10H12.18Zm36.3,26H13.85L12.18,50H28v3a1,1,0,0,0,1,1h6a1,1,0,0,0,1-1V50H51.82ZM30,52V50h4v2Zm24-4H10V46H54Z"/><path d="M9.333,15.931l9.193,4.95a1,1,0,0,0,1.354-1.355l-4.949-9.192a1,1,0,0,0-1.588-.233L9.1,14.343a1,1,0,0,0,.232,1.588Zm4.474-3.466,2.732,5.074-5.074-2.732Z"/><path d="M9,30a1.007,1.007,0,0,0,.287-.042l10-3a1,1,0,0,0,0-1.916l-10-3A1,1,0,0,0,8,23v6a1,1,0,0,0,1,1Zm1-5.656L15.52,26,10,27.656Z"/><path d="M45,21a1,1,0,0,0,.474-.119l9.193-4.95a1,1,0,0,0,.232-1.588L50.657,10.1a1,1,0,0,0-1.588.233L44.12,19.526A1,1,0,0,0,45,21Zm5.193-8.535,2.342,2.342-5.074,2.732Z"/><path d="M55.6,22.2a1,1,0,0,0-.884-.155l-10,3a1,1,0,0,0,0,1.916l10,3A1,1,0,0,0,56,29V23A1,1,0,0,0,55.6,22.2ZM54,27.656,48.48,26,54,24.344Z"/><path d="M32,28a1,1,0,0,0,.781-.375C33.117,27.205,41,17.278,41,11a9,9,0,0,0-18,0c0,6.278,7.883,16.2,8.219,16.625A1,1,0,0,0,32,28ZM32,4a7.008,7.008,0,0,1,7,7c0,4.507-5.027,11.7-7,14.353C30.027,22.7,25,15.507,25,11A7.008,7.008,0,0,1,32,4Z"/><path d="M37,11a5,5,0,1,0-5,5A5.006,5.006,0,0,0,37,11Zm-8,0a3,3,0,1,1,3,3A3,3,0,0,1,29,11Z"/></g></svg>
