<svg height="512" viewBox="0 0 64 64" width="512" xmlns="http://www.w3.org/2000/svg"><g id="smartphone-shop-order-call-search"><circle cx="23" cy="8" r="2"/><path d="m27 7h15v2h-15z"/><path d="m45 2h-26a4 4 0 0 0 -4 4v52a4 4 0 0 0 4 4h26a4 4 0 0 0 4-4v-52a4 4 0 0 0 -4-4zm2 56a2.006 2.006 0 0 1 -2 2h-26a2.006 2.006 0 0 1 -2-2v-52a2.006 2.006 0 0 1 2-2h26a2.006 2.006 0 0 1 2 2z"/><path d="m38 14h-12a3.009 3.009 0 0 0 -3 3v4a1 1 0 0 0 1 1v9a1 1 0 0 0 1 1h14a1 1 0 0 0 1-1v-9a1 1 0 0 0 1-1v-4a3.009 3.009 0 0 0 -3-3zm-5 2h2v4h-2zm-4 0h2v4h-2zm-4 1a1 1 0 0 1 1-1h1v4h-2zm8 13h-2v-4h2zm5 0h-3v-5a1 1 0 0 0 -1-1h-4a1 1 0 0 0 -1 1v5h-3v-8h12zm1-10h-2v-4h1a1 1 0 0 1 1 1z"/><circle cx="32" cy="56" r="2"/><path d="m21 43h22v2h-22z"/><path d="m21 48h15v2h-15z"/><path d="m38 48h5v2h-5z"/><path d="m42 34h-20a1 1 0 0 0 -1 1v4a1 1 0 0 0 1 1h20a1 1 0 0 0 1-1v-4a1 1 0 0 0 -1-1zm-1 4h-18v-2h18z"/></g></svg>