<svg height="512" viewBox="0 0 64 64" width="512" xmlns="http://www.w3.org/2000/svg"><g id="success-correct-beverage-mark-received"><circle cx="23" cy="8" r="2"/><circle cx="32" cy="56" r="2"/><path d="m27 7h16v2h-16z"/><path d="m32 38a7 7 0 1 0 7 7 7.008 7.008 0 0 0 -7-7zm0 12a5 5 0 1 1 5-5 5.006 5.006 0 0 1 -5 5z"/><path d="m31 45.586-1.293-1.293-1.414 1.414 2 2a1 1 0 0 0 1.414 0l4-4-1.414-1.414z"/><path d="m45 2h-26a4 4 0 0 0 -4 4v52a4 4 0 0 0 4 4h26a4 4 0 0 0 4-4v-52a4 4 0 0 0 -4-4zm2 56a2.006 2.006 0 0 1 -2 2h-26a2.006 2.006 0 0 1 -2-2v-52a2.006 2.006 0 0 1 2-2h26a2.006 2.006 0 0 1 2 2z"/><path d="m41 16h-8v-3h5v-2h-6a1 1 0 0 0 -1 1v4h-8a1 1 0 0 0 -1 1v4a1 1 0 0 0 1 1h1.13l1.88 13.14a1 1 0 0 0 .99.86h10a1 1 0 0 0 .99-.86l1.88-13.14h1.13a1 1 0 0 0 1-1v-4a1 1 0 0 0 -1-1zm-4.87 18h-8.26l-.29-2h8.84zm.57-4h-9.4l-.58-4h10.56zm.86-6h-11.12l-.29-2h11.7zm2.44-4h-16v-2h16z"/></g></svg>