<?xml version="1.0" encoding="UTF-8"?>
<svg xmlns="http://www.w3.org/2000/svg" viewBox="0 0 64 64" width="512" height="512"><g id="bag-drinking-delivery-cup-coffee-2" data-name="bag-drinking-delivery-cup-coffee"><path d="M61,34H45.7l-.37-3.73A2.449,2.449,0,0,1,46,32h2a4.51,4.51,0,0,0-1.22-3.12,2.656,2.656,0,0,1,0-3.76A4.51,4.51,0,0,0,48,22H46a2.6,2.6,0,0,1-.78,1.88c-.15.18-.31.39-.47.61L44,16.9a1.015,1.015,0,0,0-1-.9H37V14a12,12,0,0,0-24,0v2H7a1.015,1.015,0,0,0-1,.9l-4,40a1.036,1.036,0,0,0,.26.77A1,1,0,0,0,3,58H41.72L42,61.09A1,1,0,0,0,43,62H57a1,1,0,0,0,1-.91L59.91,40H61a1,1,0,0,0,1-1V35A1,1,0,0,0,61,34ZM15,14a10,10,0,0,1,20,0v2H15ZM4.1,56,7.9,18H13v4H12v2h4V22H15V18H35v4H34v2h4V22H37V18h5.1l1.59,16H39a1,1,0,0,0-1,1v4a1,1,0,0,0,1,1h1.09l1.45,16Zm51.99,4H43.91l-.36-4h12.9Zm.54-6H43.37l-.73-8H57.36Zm.91-10H42.46l-.36-4H57.9ZM60,38H40V36H60Z"/><path d="M34,28H26V22h5V20H25a1,1,0,0,0-1,1v7H16a1,1,0,0,0-1,1v4a1,1,0,0,0,1,1h1.11l1.9,17.11A.989.989,0,0,0,20,52H30a.989.989,0,0,0,.99-.89L32.89,34H34a1,1,0,0,0,1-1V29A1,1,0,0,0,34,28ZM29.1,50H20.9l-.45-4h9.1Zm.67-6H20.23l-.45-4H30.22Zm.67-6H19.56l-.44-4H30.88ZM33,32H17V30H33Z"/><path d="M49.219,30.125A2.583,2.583,0,0,1,50,32h2a4.527,4.527,0,0,0-1.219-3.125,2.641,2.641,0,0,1,0-3.75A4.527,4.527,0,0,0,52,22H50a2.583,2.583,0,0,1-.781,1.875,4.615,4.615,0,0,0,0,6.25Z"/><path d="M53.219,30.125A2.583,2.583,0,0,1,54,32h2a4.527,4.527,0,0,0-1.219-3.125,2.641,2.641,0,0,1,0-3.75A4.527,4.527,0,0,0,56,22H54a2.583,2.583,0,0,1-.781,1.875,4.615,4.615,0,0,0,0,6.25Z"/></g></svg>
