<svg height="512" viewBox="0 0 64 64" width="512" xmlns="http://www.w3.org/2000/svg"><g id="beverage-tap-drink-smartphone-press"><path d="m45 2h-26a4 4 0 0 0 -4 4v52a4 4 0 0 0 4 4h26a4 4 0 0 0 4-4v-52a4 4 0 0 0 -4-4zm2 56a2.006 2.006 0 0 1 -2 2h-26a2.006 2.006 0 0 1 -2-2v-52a2.006 2.006 0 0 1 2-2h26a2.006 2.006 0 0 1 2 2z"/><circle cx="23" cy="8" r="2"/><circle cx="32" cy="56" r="2"/><path d="m27 7h16v2h-16z"/><path d="m41 19h-8v-6h5v-2h-6a1 1 0 0 0 -1 1v7h-8a1 1 0 0 0 -1 1v4a1 1 0 0 0 1 1h1.13l1.88 13.14a1 1 0 0 0 .99.86h10a1 1 0 0 0 .99-.86l1.88-13.14h1.13a1 1 0 0 0 1-1v-4a1 1 0 0 0 -1-1zm-4.87 18h-8.26l-.29-2h8.84zm.57-4h-9.4l-.58-4h10.56zm.86-6h-11.12l-.29-2h11.7zm2.44-4h-16v-2h16z"/><path d="m21 43h22v2h-22z"/><path d="m21 48h15v2h-15z"/><path d="m38 48h5v2h-5z"/></g></svg>