<svg height="512" viewBox="0 0 64 64" width="512" xmlns="http://www.w3.org/2000/svg"><g id="calling-orders-shop-talking-call"><path d="m33.97 51.24-4.24-4.24a3.075 3.075 0 0 0 -4.24 0l-1.42 1.41a1.014 1.014 0 0 1 -1.41 0l-7.07-7.07a.978.978 0 0 1 0-1.41l1.41-1.42a2.994 2.994 0 0 0 0-4.24l-4.24-4.24a3.088 3.088 0 0 0 -4.25 0l-4.24 4.24a9.011 9.011 0 0 0 0 12.73l12.73 12.73a9.017 9.017 0 0 0 12.73 0l4.24-4.24a3.006 3.006 0 0 0 0-4.25zm-24.04-19.8a1 1 0 0 1 1.41 0l4.25 4.25a.984.984 0 0 1 .29.7 1.033 1.033 0 0 1 -.29.71l-.71.71-5.66-5.66zm18.38 26.87a7.007 7.007 0 0 1 -9.9 0l-12.72-12.72a7.007 7.007 0 0 1 0-9.9l2.12-2.13 5.78 5.79a2.98 2.98 0 0 0 -.3 1.29 3.015 3.015 0 0 0 .88 2.12l7.07 7.07a3.1 3.1 0 0 0 3.4.57l5.8 5.79zm4.25-4.24-.71.71-5.66-5.66.71-.71a1.034 1.034 0 0 1 1.41 0l4.25 4.25a1 1 0 0 1 0 1.41z"/><path d="m21.242 55.485-1.414 1.415a5.006 5.006 0 0 0 7.071 0l-1.414-1.414a3 3 0 0 1 -4.243-.001z"/><path d="m46 2a16 16 0 1 0 16 16 16.021 16.021 0 0 0 -16-16zm0 30a14 14 0 1 1 14-14 14.015 14.015 0 0 1 -14 14z"/><path d="m23 29v2a10.011 10.011 0 0 1 10 10h2a12.013 12.013 0 0 0 -12-12z"/><path d="m29 41h2a8.009 8.009 0 0 0 -8-8v2a6.006 6.006 0 0 1 6 6z"/><path d="m25 41h2a4 4 0 0 0 -4-4v2a2 2 0 0 1 2 2z"/><path d="m52 9h-12a3.009 3.009 0 0 0 -3 3v4a1 1 0 0 0 1 1v9a1 1 0 0 0 1 1h14a1 1 0 0 0 1-1v-9a1 1 0 0 0 1-1v-4a3.009 3.009 0 0 0 -3-3zm-5 2h2v4h-2zm-4 0h2v4h-2zm-4 1a1 1 0 0 1 1-1h1v4h-2zm8 13h-2v-4h2zm5 0h-3v-5a1 1 0 0 0 -1-1h-4a1 1 0 0 0 -1 1v5h-3v-8h12zm1-10h-2v-4h1a1 1 0 0 1 1 1z"/></g></svg>