<svg height="512" viewBox="0 0 64 64" width="512" xmlns="http://www.w3.org/2000/svg"><g id="computer-ordering-coffee-drink-beverage"><path d="m57 2h-50a5 5 0 0 0 -5 5v36a5 5 0 0 0 5 5h19v6h-5a3.009 3.009 0 0 0 -3 3v4a1 1 0 0 0 1 1h26a1 1 0 0 0 1-1v-4a3.009 3.009 0 0 0 -3-3h-5v-6h19a5 5 0 0 0 5-5v-36a5 5 0 0 0 -5-5zm-14 54a1 1 0 0 1 1 1v3h-24v-3a1 1 0 0 1 1-1zm-15-2v-6h8v6zm32-11a3.009 3.009 0 0 1 -3 3h-50a3.009 3.009 0 0 1 -3-3v-3h56zm0-5h-56v-31a3.009 3.009 0 0 1 3-3h50a3.009 3.009 0 0 1 3 3z"/><path d="m56 42h2v2h-2z"/><path d="m52 42h2v2h-2z"/><path d="m48 42h2v2h-2z"/><path d="m9 20h1.133l1.877 13.142a1 1 0 0 0 .99.858h10a1 1 0 0 0 .99-.858l1.877-13.142h1.133a1 1 0 0 0 1-1v-4a1 1 0 0 0 -1-1h-8v-4h5v-2h-6a1 1 0 0 0 -1 1v5h-8a1 1 0 0 0 -1 1v4a1 1 0 0 0 1 1zm3.724 4h10.552l-.576 4h-9.4zm1.143 8-.286-2h8.838l-.286 2zm9.694-10h-11.122l-.286-2h11.694zm-13.561-6h16v2h-16z"/><path d="m32 12h24v2h-24z"/><path d="m32 24h24v2h-24z"/><path d="m32 18h16v2h-16z"/><path d="m32 30h16v2h-16z"/></g></svg>