<?xml version="1.0" encoding="UTF-8"?>
<svg xmlns="http://www.w3.org/2000/svg" viewBox="0 0 64 64" width="512" height="512"><g id="delivery-motorcycle-man-food-service"><path d="M61,16H49a1,1,0,0,0-1,1V34H46V17a1,1,0,0,0-1-1H44V14h1a1,1,0,0,0,1-1V8a6,6,0,0,0-6-6H39a5,5,0,0,0-5,5V9a5.017,5.017,0,0,0,4,4.9V16a3.993,3.993,0,0,0-3.45,2.01L24.85,21H20V19a1,1,0,0,0-1-1H11V13h1a3,3,0,0,0,0-6H10A1,1,0,0,0,9,8V18a3.009,3.009,0,0,0-3,3H5a3,3,0,0,0,0,6H6a3.009,3.009,0,0,0,3,3h1V44H5a3.009,3.009,0,0,0-3,3v8a1,1,0,0,0,1,1H4.08a6.991,6.991,0,0,0,13.84,0H37.08a6.991,6.991,0,0,0,13.84,0H55a1,1,0,0,0,1-1V51a1,1,0,0,0-1-1H54V36h5a1,1,0,0,0,1-1V32h1a1,1,0,0,0,1-1V17A1,1,0,0,0,61,16ZM11,9h1a1,1,0,0,1,0,2H11ZM6,25H5a1,1,0,0,1,0-2H6Zm44-7h4v2H50Zm0,4h4v8H50ZM39,4h1a4,4,0,0,1,4,4v4H42V9a3.009,3.009,0,0,0-3-3H36.18A3.01,3.01,0,0,1,39,4Zm3,10v2H40V14ZM36,9V8h3a1,1,0,0,1,1,1v3H39A3.009,3.009,0,0,1,36,9Zm0,11a2.006,2.006,0,0,1,2-2h6V30H36Zm8,12v2H29a1,1,0,0,0-1,1V46H26V33a1,1,0,0,1,1-1ZM32,36V50H30V36ZM28,48v2H24V48ZM26,22.74l8-2.46v.98l-8,2.4ZM25,27a1,1,0,0,0,1-1v-.26l8-2.4V30H27a3.009,3.009,0,0,0-3,3V46H23a1,1,0,0,0-1,1v3H20V27ZM11,60a5,5,0,1,1,5-5A5,5,0,0,1,11,60Zm7-6h-.08A6.991,6.991,0,0,0,4.08,54H4V47a1,1,0,0,1,1-1H18Zm0-10H12V30h6Zm0-16H9a1,1,0,0,1-1-1V21a1,1,0,0,1,1-1h9v1H15a1,1,0,0,0-1,1v4a1,1,0,0,0,1,1h3Zm-2-3V23h8v2ZM37.08,54H20V52H37.69A6.739,6.739,0,0,0,37.08,54ZM44,60a5,5,0,1,1,5-5A5,5,0,0,1,44,60Zm4.89-10a6.978,6.978,0,0,0-9.78,0H34V36H52V50ZM54,54H50.92a6.739,6.739,0,0,0-.61-2H54Zm4-20H50V32h8Zm2-4H56V22h4Zm0-10H56V18h4Z"/></g></svg>
