<?xml version="1.0" encoding="UTF-8"?>
<svg xmlns="http://www.w3.org/2000/svg" viewBox="0 0 64 64" width="512" height="512"><g id="heart-food-commentators-love-rate"><path d="M59.98,56.18A27.044,27.044,0,0,0,36,30.17V30a4,4,0,0,0-8,0v.17A27.044,27.044,0,0,0,4.02,56.18,2.991,2.991,0,0,0,5,62H59a2.991,2.991,0,0,0,.98-5.82ZM30,30a2.006,2.006,0,0,1,2-2,2.015,2.015,0,0,1,2,2v.03c-.33-.02-.66-.03-1-.03H31c-.34,0-.67.01-1,.03Zm1,2h2A25.035,25.035,0,0,1,57.98,56H6.02A25.035,25.035,0,0,1,31,32ZM59,60H5a1,1,0,0,1,0-2H59a1,1,0,0,1,0,2Z"/><path d="M32,22c1.47,0,6-3.6,6-8a4,4,0,0,0-4-4,3.956,3.956,0,0,0-2,.545A3.956,3.956,0,0,0,30,10a4,4,0,0,0-4,4C26,18.4,30.53,22,32,22ZM30,12a1.993,1.993,0,0,1,1.331.521,1,1,0,0,0,1.338,0A1.989,1.989,0,0,1,36,14c0,3.13-3.118,5.6-4,5.972C31.118,19.6,28,17.13,28,14A2,2,0,0,1,30,12Z"/><path d="M18,26c1.47,0,6-3.6,6-8a4,4,0,0,0-4-4,3.956,3.956,0,0,0-2,.545A3.956,3.956,0,0,0,16,14a4,4,0,0,0-4,4C12,22.4,16.53,26,18,26ZM16,16a1.993,1.993,0,0,1,1.331.521,1,1,0,0,0,1.338,0A1.989,1.989,0,0,1,22,18c0,3.13-3.118,5.6-4,5.972C17.118,23.6,14,21.13,14,18A2,2,0,0,1,16,16Z"/><path d="M8,37c1.47,0,6-3.6,6-8a4,4,0,0,0-4-4,3.956,3.956,0,0,0-2,.545A3.956,3.956,0,0,0,6,25a4,4,0,0,0-4,4C2,33.4,6.53,37,8,37ZM6,27a1.993,1.993,0,0,1,1.331.521,1,1,0,0,0,1.338,0A1.989,1.989,0,0,1,12,29c0,3.13-3.118,5.6-4,5.972C7.118,34.6,4,32.13,4,29A2,2,0,0,1,6,27Z"/><path d="M46,26c1.47,0,6-3.6,6-8a4,4,0,0,0-4-4,3.956,3.956,0,0,0-2,.545A3.956,3.956,0,0,0,44,14a4,4,0,0,0-4,4C40,22.4,44.53,26,46,26ZM44,16a1.989,1.989,0,0,1,1.33.521,1,1,0,0,0,1.34,0A1.988,1.988,0,0,1,50,18c0,3.13-3.118,5.6-4,5.972C45.118,23.6,42,21.13,42,18A2,2,0,0,1,44,16Z"/><path d="M50,29c0,4.4,4.53,8,6,8s6-3.6,6-8a4,4,0,0,0-4-4,3.956,3.956,0,0,0-2,.545A3.956,3.956,0,0,0,54,25,4,4,0,0,0,50,29Zm4-2a1.989,1.989,0,0,1,1.33.521,1,1,0,0,0,1.34,0A1.988,1.988,0,0,1,60,29c0,3.13-3.118,5.6-4,5.972C55.118,34.6,52,32.13,52,29A2,2,0,0,1,54,27Z"/></g></svg>
