<svg height="512" viewBox="0 0 64 64" width="512" xmlns="http://www.w3.org/2000/svg"><g id="packaging-computer-order-food"><path d="m57 2h-50a5 5 0 0 0 -5 5v36a5 5 0 0 0 5 5h19v6h-5a3.009 3.009 0 0 0 -3 3v4a1 1 0 0 0 1 1h26a1 1 0 0 0 1-1v-4a3.009 3.009 0 0 0 -3-3h-5v-6h19a5 5 0 0 0 5-5v-36a5 5 0 0 0 -5-5zm-14 54a1 1 0 0 1 1 1v3h-24v-3a1 1 0 0 1 1-1zm-15-2v-6h8v6zm32-11a3.009 3.009 0 0 1 -3 3h-50a3.009 3.009 0 0 1 -3-3v-3h56zm0-5h-56v-31a3.009 3.009 0 0 1 3-3h50a3.009 3.009 0 0 1 3 3z"/><path d="m56 42h2v2h-2z"/><path d="m52 42h2v2h-2z"/><path d="m48 42h2v2h-2z"/><path d="m29 12h-16a1.033 1.033 0 0 0 -.71.29l-4 4a1 1 0 0 0 -.29.71v12a1 1 0 0 0 1 1h16a1 1 0 0 0 .71-.29l4-4a1.033 1.033 0 0 0 .29-.71v-12a1 1 0 0 0 -1-1zm-10.59 2h3.18l-2 2h-3.18zm.59 4v4h-4v-4zm-5.59-4h2.18l-2 2h-2.18zm10.59 14h-14v-10h3v5a1 1 0 0 0 1 1h6a1 1 0 0 0 1-1v-5h3zm.59-12h-2.18l2-2h2.18zm3.41 8.59-2 2v-9.18l2-2z"/><path d="m32 12h24v2h-24z"/><path d="m32 24h24v2h-24z"/><path d="m32 18h16v2h-16z"/><path d="m32 30h16v2h-16z"/></g></svg>