<?xml version="1.0" encoding="UTF-8"?>
<svg xmlns="http://www.w3.org/2000/svg" viewBox="0 0 64 64" width="512" height="512"><g id="pin-cup-location-iced-delivery"><path d="M9.333,19.931l9.192,4.95a1,1,0,0,0,1.356-1.356l-4.95-9.192a1,1,0,0,0-1.588-.232L9.1,18.343a1,1,0,0,0,.232,1.588Zm4.474-3.466,2.732,5.074-5.074-2.732Z"/><path d="M19.287,29.042l-10-3A1,1,0,0,0,8,27v6a1,1,0,0,0,1.287.958l10-3a1,1,0,0,0,0-1.916ZM10,31.656V28.344L15.52,30Z"/><path d="M45,25a1.008,1.008,0,0,0,.475-.119l9.192-4.95a1,1,0,0,0,.232-1.588L50.657,14.1a1,1,0,0,0-1.588.232l-4.95,9.192A1,1,0,0,0,45,25Zm5.193-8.535,2.342,2.342-5.074,2.732Z"/><path d="M55.6,26.2a1,1,0,0,0-.884-.155l-10,3a1,1,0,0,0,0,1.916l10,3A1,1,0,0,0,56,33V27A1,1,0,0,0,55.6,26.2ZM54,31.656,48.48,30,54,28.344Z"/><path d="M32,28a1,1,0,0,0,.781-.375C33.116,27.205,41,17.278,41,11a9,9,0,0,0-18,0c0,6.278,7.884,16.2,8.219,16.625A1,1,0,0,0,32,28ZM32,4a7.009,7.009,0,0,1,7,7c0,4.507-5.026,11.7-7,14.353C30.026,22.7,25,15.507,25,11A7.009,7.009,0,0,1,32,4Z"/><path d="M37,11a5,5,0,1,0-5,5A5.006,5.006,0,0,0,37,11Zm-8,0a3,3,0,1,1,3,3A3,3,0,0,1,29,11Z"/><path d="M41,38H33V32h5V30H32a1,1,0,0,0-1,1v7H23a1,1,0,0,0-1,1v4a1,1,0,0,0,1,1h1.1l1.91,17.11A.989.989,0,0,0,27,62H37a.989.989,0,0,0,.99-.89L39.9,44H41a1,1,0,0,0,1-1V39A1,1,0,0,0,41,38ZM36.1,60H27.9l-.45-4h9.1Zm.67-6H27.23l-.45-4H37.22Zm.67-6H26.56l-.44-4H37.88ZM40,42H24V40H40Z"/></g></svg>
