<svg height="512" viewBox="0 0 64 64" width="512" xmlns="http://www.w3.org/2000/svg"><g id="quick-truck-fast-cup-transportation"><path d="m51 22h-8.82l1.67-10h1.15a1 1 0 0 0 1-1v-4a1 1 0 0 0 -1-1h-7v-2h4v-2h-5a1 1 0 0 0 -1 1v3h-7a1 1 0 0 0 -1 1v4a1 1 0 0 0 1 1h1.15l1.67 10h-8.82a1 1 0 0 0 -1 1v4h-12a.984.984 0 0 0 -.88.53l-7 13a.939.939 0 0 0 -.12.47v14a1 1 0 0 0 1 1h3.08a6.991 6.991 0 0 0 13.84 0h14.16a6.991 6.991 0 0 0 13.84 0h3.08a1 1 0 0 0 1-1v-32a1 1 0 0 0 -1-1zm-38 38a5 5 0 1 1 5-5 5 5 0 0 1 -5 5zm9-6h-2.08a6.991 6.991 0 0 0 -13.84 0h-2.08v-12h18zm0-14h-17.33l5.93-11h11.4zm8-30v-2h14v2zm3.18 8-.33-2h8.3l-.33 2zm7.31 2-.34 2h-6.3l-.34-2zm-7.98-6-.33-2h9.64l-.33 2zm8.49 46a5 5 0 1 1 5-5 5 5 0 0 1 -5 5zm9-6h-2.08a6.991 6.991 0 0 0 -13.84 0h-10.08v-8h26zm0-10h-26v-20h26z"/><path d="m16 44h4v2h-4z"/><path d="m41 52a3 3 0 1 0 3 3 3 3 0 0 0 -3-3zm0 4a1 1 0 1 1 1-1 1 1 0 0 1 -1 1z"/><path d="m13 52a3 3 0 1 0 3 3 3 3 0 0 0 -3-3zm0 4a1 1 0 1 1 1-1 1 1 0 0 1 -1 1z"/><path d="m47 26h-20a1 1 0 0 0 -1 1v2a2.986 2.986 0 0 0 1 2.22v9.78a1 1 0 0 0 1 1h18a1 1 0 0 0 1-1v-9.78a2.986 2.986 0 0 0 1-2.22v-2a1 1 0 0 0 -1-1zm-7 2h2v1a1 1 0 0 1 -2 0zm-4 0h2v1a1 1 0 0 1 -2 0zm-4 0h2v1a1 1 0 0 1 -2 0zm-4 1v-1h2v1a1 1 0 0 1 -2 0zm17 11h-16v-8a2.974 2.974 0 0 0 2-.78 2.954 2.954 0 0 0 4 0 2.954 2.954 0 0 0 4 0 2.954 2.954 0 0 0 4 0 2.974 2.974 0 0 0 2 .78zm1-11a1 1 0 0 1 -2 0v-1h2z"/><path d="m54 42h4v2h-4z"/><path d="m54 48h6v2h-6z"/><path d="m54 54h8v2h-8z"/></g></svg>