<svg height="512" viewBox="0 0 64 64" width="512" xmlns="http://www.w3.org/2000/svg"><g id="smartphone-food-order-check-mark"><circle cx="23" cy="8" r="2"/><path d="m27 7h15v2h-15z"/><path d="m45 2h-26a4 4 0 0 0 -4 4v52a4 4 0 0 0 4 4h26a4 4 0 0 0 4-4v-52a4 4 0 0 0 -4-4zm2 56a2.006 2.006 0 0 1 -2 2h-26a2.006 2.006 0 0 1 -2-2v-52a2.006 2.006 0 0 1 2-2h26a2.006 2.006 0 0 1 2 2z"/><path d="m42.96 26.17a11 11 0 0 0 -7.96-9.74v-1.43a3 3 0 0 0 -3-3 3.009 3.009 0 0 0 -3 3v1.43a11 11 0 0 0 -7.96 9.74 2.993 2.993 0 0 0 .96 5.83h20a2.993 2.993 0 0 0 .96-5.83zm-11.96-11.17a1 1 0 0 1 1-1 .949.949 0 0 1 .71.31.928.928 0 0 1 .29.69v1.05c-.33-.03-.66-.05-1-.05s-.67.02-1 .05zm1 3a9.008 9.008 0 0 1 8.94 8h-17.88a9.008 9.008 0 0 1 8.94-8zm10 12h-20a1 1 0 0 1 0-2h20a1 1 0 0 1 0 2z"/><path d="m32 38a7 7 0 1 0 7 7 7.008 7.008 0 0 0 -7-7zm0 12a5 5 0 1 1 5-5 5.006 5.006 0 0 1 -5 5z"/><path d="m31 45.586-1.293-1.293-1.414 1.414 2 2a1 1 0 0 0 1.414 0l4-4-1.414-1.414z"/><circle cx="32" cy="56" r="2"/></g></svg>