<?xml version="1.0" encoding="UTF-8"?>
<svg xmlns="http://www.w3.org/2000/svg" viewBox="0 0 64 64" width="512" height="512"><g id="spoon-fork-lunch-bag-box"><path d="M61,48H59.78l-1.81-7.24A1,1,0,0,0,57,40H46.3L44,16.9a1.015,1.015,0,0,0-1-.9H37V14a12,12,0,0,0-24,0v2H7a1.015,1.015,0,0,0-1,.9l-4,40a1.036,1.036,0,0,0,.26.77A1,1,0,0,0,3,58H35.22l.81,3.24A1,1,0,0,0,37,62H57a1,1,0,0,0,.97-.76L59.78,54H61a1,1,0,0,0,1-1V49A1,1,0,0,0,61,48Zm-4.78-6,1.5,6H36.28l1.5-6ZM15,14a10,10,0,0,1,20,0v2H15ZM4.1,56,7.9,18H13v4H12v2h4V22H15V18H35v4H34v2h4V22H37V18h5.1l2.19,22H37a1,1,0,0,0-.97.76L34.22,48H34V43a1,1,0,0,0-1-1H32V37.88c2.28-.56,4-2.98,4-5.88,0-3.31-2.24-6-5-6s-5,2.69-5,6c0,2.9,1.72,5.32,4,5.88V42H29a1,1,0,0,0-1,1v8a3.009,3.009,0,0,0,3,3,2.947,2.947,0,0,0,1.29-.3A1,1,0,0,0,33,54h1.22l.5,2ZM31,36c-1.65,0-3-1.79-3-4s1.35-4,3-4,3,1.79,3,4S32.65,36,31,36Zm1,8v7a1,1,0,0,1-2,0V44ZM56.22,60H37.78l-1.5-6H43v3a1,1,0,0,0,1,1h6a1,1,0,0,0,1-1V54h6.72ZM45,56V54h4v2Zm15-4H34V50H60Z"/><path d="M22,26v6a3.01,3.01,0,0,1-2,2.82V26H18v8.82A3.01,3.01,0,0,1,16,32V26H14v6a5.017,5.017,0,0,0,4,4.9V42H17a1,1,0,0,0-1,1v8a3,3,0,0,0,6,0V43a1,1,0,0,0-1-1H20V36.9A5.017,5.017,0,0,0,24,32V26ZM20,51a1,1,0,0,1-2,0V44h2Z"/></g></svg>
